<svg width="200" height="200" viewBox="0 0 315 330" fill="none" xmlns="http://www.w3.org/2000/svg">
<path d="M189.403 308.277H78.9982C71.2314 308.268 63.7853 305.179 58.2934 299.687C52.8015 294.196 49.7122 286.75 49.7034 278.984V103.918C49.7122 96.1515 52.8015 88.7058 58.2934 83.2142C63.7853 77.7226 71.2314 74.6336 78.9982 74.6248H189.403C197.17 74.6336 204.616 77.7226 210.108 83.2142C215.6 88.7058 218.689 96.1515 218.698 103.918V278.984C218.689 286.75 215.6 294.196 210.108 299.687C204.616 305.179 197.17 308.268 189.403 308.277Z" fill="#9DDE85"/>
<path d="M233.96 244.56H35.2433V290.415H233.96V244.56Z" fill="#3F3D56"/>
<path d="M204.689 329.865H63.7122C55.8329 329.856 48.2788 326.722 42.7073 321.151C37.1358 315.58 34.0018 308.026 33.9929 300.147V82.7537C34.0018 74.8748 37.1358 67.3212 42.7073 61.7501C48.2788 56.1789 55.8329 53.0451 63.7122 53.0361H204.689C212.568 53.0451 220.122 56.1789 225.694 61.7501C231.266 67.3212 234.4 74.8748 234.408 82.7537V300.147C234.4 308.026 231.266 315.58 225.694 321.151C220.122 326.722 212.568 329.856 204.689 329.865ZM63.7122 54.7345C56.2832 54.7428 49.1608 57.6976 43.9077 62.9504C38.6546 68.2032 35.6997 75.3251 35.6913 82.7537V300.147C35.6997 307.576 38.6546 314.698 43.9077 319.951C49.1608 325.203 56.2832 328.158 63.7122 328.167H204.689C212.118 328.158 219.241 325.203 224.494 319.951C229.747 314.698 232.702 307.576 232.71 300.147V82.7537C232.702 75.3251 229.747 68.2032 224.494 62.9504C219.241 57.6976 212.118 54.7428 204.689 54.7345H63.7122Z" fill="#3F3D56"/>
<path d="M211.032 45.8551C210.587 45.8551 210.146 45.8709 209.708 45.8959C211.226 41.6233 211.443 36.9966 210.333 32.6006C209.222 28.2045 206.833 24.2363 203.467 21.1975C200.102 18.1587 195.911 16.1857 191.425 15.5277C186.938 14.8698 182.357 15.5565 178.261 17.5011C174.586 7.15661 166.686 0 157.531 0C148.375 0 140.475 7.15661 136.8 17.5011C133.725 16.042 130.363 15.285 126.959 15.285C123.555 15.285 120.193 16.042 117.117 17.5011C113.442 7.15661 105.543 0 96.387 0C87.2314 0 79.3317 7.15661 75.6566 17.5011C71.5592 15.5559 66.9769 14.8693 62.4892 15.5281C58.0015 16.1869 53.81 18.1616 50.4446 21.2024C47.0792 24.2431 44.6911 28.2135 43.5822 32.6113C42.4733 37.0092 42.6934 41.6371 44.2148 45.9099C43.7748 45.8764 43.3324 45.8551 42.8862 45.8551C30.223 45.8551 19.9573 59.5417 19.9573 76.4251C19.9573 93.3085 30.223 106.995 42.8862 106.995C53.3157 106.995 62.1127 97.708 64.8942 85.0006C68.2422 88.3448 72.5427 90.5718 77.206 91.3763C81.8694 92.1807 86.6675 91.5233 90.9426 89.4941C94.6177 99.8385 102.517 106.995 111.673 106.995C122.102 106.995 130.899 97.708 133.681 85.0006C137.029 88.3448 141.329 90.5718 145.993 91.3763C150.656 92.1807 155.454 91.5233 159.729 89.4941C163.404 99.8385 171.304 106.995 180.46 106.995C189.615 106.995 197.515 99.8385 201.19 89.4941C204.297 90.9701 207.696 91.7283 211.136 91.7125C214.575 91.6967 217.967 90.9073 221.06 89.4028C224.154 87.8983 226.869 85.7172 229.004 83.0211C231.14 80.3251 232.642 77.183 233.399 73.8278C234.155 70.4726 234.148 66.9902 233.376 63.6384C232.604 60.2867 231.088 57.1515 228.94 54.4652C226.792 51.7788 224.067 49.6101 220.967 48.1197C217.867 46.6293 214.471 45.8553 211.032 45.8551Z" fill="#F0F0F0"/>
<path d="M233.559 260.695V258.996C254.567 258.996 274.713 250.652 289.568 235.798C304.422 220.945 312.767 200.799 312.767 179.793C312.767 158.787 304.422 138.641 289.568 123.788C274.713 108.934 254.567 100.59 233.559 100.59V98.8912C255.017 98.8912 275.596 107.415 290.769 122.587C305.942 137.759 314.466 158.336 314.466 179.793C314.466 201.249 305.942 221.827 290.769 236.999C275.596 252.171 255.017 260.695 233.559 260.695Z" fill="#3F3D56"/>
<path d="M233.96 245.41H233.111V243.268H234.81V243.706C250.832 243.482 266.116 236.931 277.327 225.483C288.539 214.034 294.768 198.617 294.656 182.595C294.544 166.572 288.1 151.244 276.729 139.953C265.359 128.663 249.985 122.327 233.96 122.327V120.629C250.508 120.629 266.379 127.202 278.08 138.903C289.781 150.603 296.355 166.472 296.355 183.019C296.355 199.566 289.781 215.435 278.08 227.136C266.379 238.836 250.508 245.41 233.96 245.41Z" fill="#3F3D56"/>
<path d="M35.323 10.8776C30.6253 11.0246 15.5808 12.0099 7.76476 18.5744C-1.5726 26.4167 -1.57295 33.8641 2.95178 39.2509C7.47651 44.6377 14.8123 45.924 24.1501 38.0817C32.0653 31.4341 35.6256 16.4954 36.5271 12.0967L35.323 10.8776Z" fill="#F2F2F2"/>
<path d="M232.452 27.6924C233.004 32.3595 235.285 47.2619 242.5 54.4814C251.12 63.1062 258.54 62.4635 263.517 57.4908C268.493 52.5181 269.141 45.0991 260.521 36.4739C253.215 29.1627 238.023 26.9059 233.563 26.3876L232.452 27.6924Z" fill="#F2F2F2"/>
</svg>
