<svg width="200" height="200" viewBox="0 0 334 282" fill="none" xmlns="http://www.w3.org/2000/svg">
<path d="M39.3261 270.948L5.67676 227.687C3.50408 224.894 1.90285 221.701 0.964526 218.289C0.0261995 214.877 -0.230844 211.314 0.208061 207.803C0.646965 204.292 1.77323 200.902 3.52254 197.826C5.27184 194.75 7.60992 192.049 10.4033 189.877L146.695 83.878C154.671 77.6643 164.3 73.9376 174.381 73.1633L185.876 72.2733L284.855 14.3019C283.987 12.4093 283.845 10.2637 284.456 8.27317C285.066 6.28259 286.388 4.5859 288.168 3.50581C289.948 2.42572 292.063 2.03758 294.111 2.41521C296.159 2.79283 297.996 3.9099 299.274 5.55391L327.428 41.7497C328.71 43.3968 329.34 45.4585 329.198 47.5408C329.056 49.6232 328.152 51.5803 326.658 53.0382C325.164 54.4961 323.186 55.3527 321.101 55.4444C319.015 55.536 316.969 54.8562 315.354 53.5349L234.387 134.497C232.662 147.975 225.654 160.216 214.905 168.528L77.1388 275.674C74.3457 277.847 71.152 279.448 67.7401 280.386C64.3281 281.324 60.7648 281.581 57.2535 281.143C53.7422 280.704 50.3517 279.577 47.2757 277.828C44.1997 276.079 41.4984 273.741 39.3261 270.948Z" fill="white"/>
<path d="M46.4346 260.551L17.504 223.357C15.6606 220.988 14.3021 218.278 13.506 215.384C12.7099 212.489 12.4918 209.466 12.8642 206.487C13.2366 203.508 14.1921 200.632 15.6763 198.022C17.1605 195.412 19.1443 193.121 21.5143 191.278L138.693 100.143C145.503 94.8379 153.726 91.6558 162.333 90.9945L172.286 90.2239L264.031 36.4895L288.696 68.1991L213.611 143.28C212.893 148.997 211.053 154.516 208.196 159.521C205.339 164.525 201.522 168.916 196.963 172.441L78.5162 264.561C76.1465 266.404 73.4368 267.763 70.542 268.559C67.6472 269.355 64.6239 269.573 61.6448 269.201C58.6657 268.829 55.7891 267.873 53.1793 266.389C50.5695 264.905 48.2776 262.921 46.4346 260.551Z" fill="#9DDE85"/>
<path d="M319.216 42.7777C322.032 43.5677 325.647 42.7749 328.677 40.4181C333.12 36.9629 334.62 31.4612 332.029 28.1294C331.557 27.5256 330.972 27.0196 330.307 26.6396C330.638 25.618 330.724 24.5325 330.558 23.4714C330.391 22.4103 329.977 21.4035 329.348 20.5327C329.012 20.1035 328.618 19.7233 328.176 19.4034C331.098 15.3591 332.194 11.7439 330.688 9.80805C330.251 9.33169 329.712 8.96038 329.112 8.72197C328.511 8.48355 327.864 8.38421 327.219 8.43138C327.431 6.77942 326.993 5.10971 325.996 3.77539C323.808 0.961998 319.402 0.605441 315.409 2.64011C315.361 2.57281 315.322 2.50062 315.271 2.43484C312.679 -0.896984 306.977 -0.796869 302.534 2.65829C300.311 4.31695 298.74 6.70377 298.097 9.40213C295.323 9.36122 292.623 10.2957 290.468 12.0424C286.026 15.4976 284.525 20.9993 287.117 24.3311C287.231 24.4784 287.359 24.6104 287.485 24.7443L287.432 24.7989C287.332 24.6404 287.233 24.4813 287.117 24.3311C284.525 20.9993 278.823 21.0994 274.38 24.5546C272.157 26.2132 270.586 28.6001 269.943 31.2984C267.169 31.2575 264.469 32.192 262.314 33.9387C257.872 37.3939 256.371 42.8956 258.963 46.2274C261.554 49.5592 267.256 49.4591 271.699 46.004C270.668 46.8036 269.859 47.8542 269.349 49.0556C268.84 50.2569 268.647 51.5688 268.789 52.8658C268.931 54.1629 269.404 55.4019 270.161 56.4645C270.919 57.527 271.936 58.3776 273.116 58.9349C272.177 61.1939 272.085 63.0976 273.04 64.3253C274.546 66.2612 278.319 66.0892 282.959 64.2528C283.16 64.7591 283.432 65.2348 283.765 65.6659C286.357 68.9977 292.059 68.8975 296.501 65.4424C298.725 63.7837 300.295 61.3971 300.939 58.6989C303.712 58.7395 306.412 57.8049 308.567 56.0583C309.59 55.2653 310.491 54.3256 311.24 53.2697C312.447 52.804 313.58 52.1626 314.6 51.3662C317.631 49.0094 319.289 45.7011 319.216 42.7777Z" fill="#F0F0F0"/>
<path d="M39.3261 270.948L5.67676 227.687C3.50408 224.894 1.90285 221.701 0.964526 218.289C0.0261995 214.877 -0.230844 211.314 0.208061 207.803C0.646965 204.292 1.77323 200.902 3.52254 197.826C5.27184 194.75 7.60992 192.049 10.4033 189.877L146.695 83.878C154.671 77.6643 164.3 73.9376 174.381 73.1633L185.876 72.2733L284.855 14.3019C283.987 12.4093 283.845 10.2637 284.456 8.27317C285.066 6.28259 286.388 4.5859 288.168 3.50581C289.948 2.42572 292.063 2.03758 294.111 2.41521C296.159 2.79283 297.996 3.9099 299.274 5.55391L327.428 41.7497C328.71 43.3968 329.34 45.4585 329.198 47.5408C329.056 49.6232 328.152 51.5803 326.658 53.0382C325.164 54.4961 323.186 55.3527 321.101 55.4444C319.015 55.536 316.969 54.8562 315.354 53.5349L234.387 134.497C232.662 147.975 225.654 160.216 214.905 168.528L77.1388 275.674C74.3457 277.847 71.152 279.448 67.7401 280.386C64.3281 281.324 60.7648 281.581 57.2535 281.143C53.7422 280.704 50.3517 279.577 47.2757 277.828C44.1997 276.079 41.4984 273.741 39.3261 270.948ZM297.933 6.59659C296.875 5.23492 295.339 4.32675 293.636 4.05638C291.933 3.78601 290.191 4.17369 288.763 5.14076C287.335 6.10783 286.329 7.58183 285.949 9.26361C285.568 10.9454 285.842 12.7089 286.714 14.1964L287.144 14.9294L186.397 73.9362L174.512 74.8564C164.763 75.6054 155.451 79.2094 147.738 85.2186L11.446 191.217C8.8287 193.253 6.63797 195.784 4.99891 198.666C3.35985 201.547 2.30457 204.724 1.89333 208.014C1.48209 211.304 1.72295 214.642 2.60215 217.839C3.48135 221.036 4.98166 224.028 7.01743 226.645L40.6668 269.905C42.7021 272.522 45.2332 274.713 48.1153 276.352C50.9974 277.991 54.1741 279.046 57.4641 279.457C60.7541 279.869 64.0929 279.628 67.2898 278.749C70.4867 277.87 73.4791 276.369 76.0961 274.334L213.863 167.188C219.047 163.178 223.386 158.18 226.626 152.483C229.866 146.785 231.944 140.502 232.739 133.996L232.775 133.707L315.325 51.1618L315.925 51.7635C317.147 52.9861 318.789 53.6967 320.517 53.7507C322.244 53.8046 323.927 53.1979 325.223 52.054C326.519 50.9101 327.33 49.3152 327.49 47.5943C327.651 45.8735 327.149 44.1561 326.087 42.7923L297.933 6.59659Z" fill="#3F3D56"/>
<path d="M116.683 108.295L68.4191 145.832L134.112 230.289L182.376 192.752L116.683 108.295Z" fill="#3F3D56"/>
<path d="M69.6107 145.981L134.261 229.097L181.184 192.603L116.534 109.487L69.6107 145.981Z" fill="#3F3D56"/>
<path d="M258.292 70.3586C260.637 70.3586 262.538 68.4577 262.538 66.1128C262.538 63.7679 260.637 61.8669 258.292 61.8669C255.947 61.8669 254.046 63.7679 254.046 66.1128C254.046 68.4577 255.947 70.3586 258.292 70.3586Z" fill="white"/>
<path d="M224.776 77.0616C227.121 77.0616 229.022 75.1607 229.022 72.8158C229.022 70.4709 227.121 68.5699 224.776 68.5699C222.431 68.5699 220.53 70.4709 220.53 72.8158C220.53 75.1607 222.431 77.0616 224.776 77.0616Z" fill="white"/>
<path d="M226.787 104.544C229.132 104.544 231.033 102.643 231.033 100.298C231.033 97.9529 229.132 96.052 226.787 96.052C224.442 96.052 222.541 97.9529 222.541 100.298C222.541 102.643 224.442 104.544 226.787 104.544Z" fill="white"/>
<path d="M193.27 111.247C195.615 111.247 197.516 109.346 197.516 107.001C197.516 104.656 195.615 102.755 193.27 102.755C190.925 102.755 189.024 104.656 189.024 107.001C189.024 109.346 190.925 111.247 193.27 111.247Z" fill="white"/>
</svg>
