<svg width="650" height="650" viewBox="0 0 669 915" fill="none" xmlns="http://www.w3.org/2000/svg">
<path d="M499.029 836.467L383.978 836.219C376.55 836.204 369.198 834.725 362.342 831.868C355.485 829.011 349.259 824.831 344.018 819.567C338.777 814.304 334.625 808.059 331.798 801.19C328.97 794.321 327.524 786.962 327.541 779.534L328.341 417.086C328.37 395.862 334.651 375.117 346.399 357.44L359.783 337.274L391.808 98.6193C387.555 97.6096 383.822 95.0719 381.318 91.489C378.815 87.9061 377.715 83.528 378.229 79.1873C378.744 74.8466 380.835 70.846 384.106 67.9467C387.377 65.0474 391.6 63.4515 395.971 63.4625L492.233 63.6696C496.614 63.6778 500.839 65.2999 504.1 68.226C507.361 71.1521 509.43 75.1771 509.912 79.5322C510.393 83.8873 509.253 88.2672 506.709 91.8351C504.166 95.4031 500.397 97.9089 496.123 98.8742L525.409 337.445C545.475 357.718 556.667 385.13 556.526 413.655L555.717 780.025C555.701 787.453 554.222 794.806 551.364 801.662C548.507 808.519 544.327 814.746 539.063 819.987C533.799 825.228 527.554 829.381 520.685 832.209C513.816 835.036 506.457 836.483 499.029 836.467Z" fill="white"/>
<path d="M491.018 811.271L392.101 811.059C385.799 811.046 379.561 809.791 373.744 807.367C367.927 804.943 362.644 801.397 358.198 796.931C353.751 792.465 350.228 787.166 347.829 781.338C345.431 775.511 344.204 769.267 344.218 762.965L344.906 451.344C344.931 433.222 350.294 415.508 360.324 400.415L371.913 382.954L401.597 161.742L485.928 161.923L513.087 383.165C521.617 391.742 528.368 401.919 532.954 413.112C537.54 424.306 539.869 436.295 539.809 448.391L539.114 763.384C539.1 769.686 537.846 775.924 535.421 781.742C532.997 787.56 529.45 792.843 524.984 797.289C520.518 801.736 515.219 805.26 509.392 807.659C503.564 810.058 497.32 811.285 491.018 811.271Z" fill="#9DDE85"/>
<path d="M483.32 78.5819C488.266 74.9451 491.627 67.9408 491.645 59.8819C491.671 48.0675 484.509 38.4746 475.648 38.4556C474.04 38.4558 472.447 38.7694 470.958 39.3789C469.697 37.5099 468.013 35.9648 466.042 34.8691C464.071 33.7734 461.87 33.1581 459.617 33.0731C458.473 33.0737 457.334 33.2346 456.235 33.5511C453.321 23.4906 448.757 17.0058 443.608 16.9947C442.256 17.1017 440.945 17.5136 439.774 18.1993C438.603 18.8849 437.603 19.8267 436.848 20.954C434.389 18.468 431.06 17.0358 427.565 16.9602C420.083 16.9441 413.8 23.7703 412.004 33.0056C411.831 32.9978 411.661 32.97 411.486 32.9696C402.625 32.9505 395.421 42.5124 395.395 54.3269C395.265 60.1487 397.184 65.8312 400.816 70.3825C397.163 74.918 395.22 80.5922 395.324 86.4146C395.298 98.229 402.459 107.822 411.32 107.841C411.712 107.842 412.095 107.801 412.48 107.765L412.502 107.923C412.111 107.884 411.72 107.842 411.32 107.841C402.459 107.822 395.256 117.384 395.229 129.198C395.099 135.02 397.018 140.703 400.651 145.254C396.998 149.789 395.054 155.464 395.159 161.286C395.132 173.1 402.294 182.693 411.155 182.712C420.016 182.731 427.22 173.169 427.246 161.355C427.236 164.094 427.928 166.79 429.257 169.185C430.586 171.581 432.507 173.595 434.836 175.036C437.166 176.478 439.826 177.298 442.562 177.418C445.299 177.538 448.021 176.955 450.468 175.723C452.991 180.195 456.021 182.809 459.286 182.816C464.434 182.827 469.027 176.362 471.985 166.314C473.083 166.635 474.221 166.801 475.365 166.806C484.226 166.825 491.43 157.264 491.456 145.449C491.586 139.627 489.667 133.945 486.035 129.394C489.687 124.858 491.631 119.184 491.527 113.361C491.537 110.644 491.147 107.94 490.368 105.337C491.158 102.737 491.561 100.035 491.562 97.3175C491.58 89.2586 488.25 82.24 483.32 78.5819Z" fill="#F0F0F0"/>
<path d="M499.029 836.467L383.978 836.219C376.55 836.204 369.198 834.725 362.342 831.868C355.485 829.011 349.259 824.831 344.018 819.567C338.777 814.304 334.625 808.059 331.798 801.19C328.97 794.321 327.524 786.962 327.541 779.534L328.341 417.086C328.37 395.862 334.651 375.117 346.399 357.44L359.783 337.274L391.808 98.6193C387.555 97.6096 383.822 95.0719 381.318 91.489C378.815 87.9061 377.715 83.528 378.229 79.1873C378.744 74.8466 380.835 70.846 384.106 67.9467C387.377 65.0474 391.6 63.4515 395.971 63.4625L492.233 63.6696C496.614 63.6778 500.839 65.2999 504.1 68.226C507.361 71.1521 509.43 75.1771 509.912 79.5322C510.393 83.8873 509.253 88.2672 506.709 91.8351C504.166 95.4031 500.397 97.9089 496.123 98.8742L525.409 337.445C545.475 357.718 556.667 385.13 556.526 413.655L555.717 780.025C555.701 787.453 554.222 794.806 551.364 801.662C548.507 808.519 544.327 814.746 539.063 819.987C533.799 825.228 527.554 829.381 520.685 832.209C513.816 835.036 506.457 836.483 499.029 836.467ZM395.963 67.0279C392.343 67.018 388.856 68.3857 386.207 70.8535C383.559 73.3213 381.949 76.7042 381.703 80.3157C381.458 83.9271 382.596 87.4966 384.886 90.2996C387.176 93.1027 390.447 94.9293 394.035 95.4087L395.804 95.6441L363.207 338.561L349.369 359.411C338.008 376.506 331.935 396.568 331.907 417.094L331.106 779.542C331.09 786.502 332.445 793.397 335.094 799.833C337.743 806.269 341.634 812.12 346.545 817.052C351.455 821.984 357.289 825.9 363.713 828.577C370.138 831.254 377.027 832.64 383.986 832.654L499.037 832.902C505.997 832.917 512.892 831.562 519.328 828.912C525.764 826.263 531.615 822.372 536.547 817.461C541.48 812.55 545.396 806.716 548.074 800.291C550.751 793.866 552.137 786.977 552.152 780.017L552.961 413.647C553.029 399.888 550.367 386.252 545.13 373.529C539.893 360.806 532.185 349.248 522.451 339.524L522.019 339.091L492.16 95.8548L493.932 95.6392C497.533 95.1982 500.831 93.4005 503.153 90.6124C505.475 87.8244 506.646 84.2558 506.429 80.634C506.211 77.0123 504.621 73.6099 501.982 71.1203C499.342 68.6307 495.853 67.2411 492.225 67.2349L395.963 67.0279Z" fill="#3F3D56"/>
<path d="M329.945 498.289L329.661 626.64L554.272 627.123L554.555 498.772L329.945 498.289Z" fill="#3F3D56"/>
<path d="M331.448 624.861L552.494 625.337L552.769 500.551L331.723 500.076L331.448 624.861Z" fill="#3F3D56"/>
<path d="M450.207 215.008C453.237 211.129 452.55 205.528 448.671 202.497C444.792 199.467 439.19 200.155 436.16 204.034C433.129 207.913 433.817 213.514 437.695 216.545C441.574 219.576 447.176 218.888 450.207 215.008Z" fill="white"/>
<path d="M417.978 279.115C421.009 275.236 420.321 269.634 416.442 266.604C412.563 263.573 406.962 264.261 403.931 268.14C400.9 272.019 401.588 277.621 405.467 280.651C409.346 283.682 414.947 282.994 417.978 279.115Z" fill="white"/>
<path d="M466.038 311.306C469.069 307.427 468.381 301.825 464.502 298.795C460.623 295.764 455.022 296.452 451.991 300.331C448.96 304.211 449.648 309.812 453.527 312.843C457.406 315.873 463.007 315.185 466.038 311.306Z" fill="white"/>
<path d="M433.809 375.412C436.839 371.533 436.152 365.932 432.273 362.901C428.394 359.871 422.792 360.559 419.762 364.438C416.731 368.317 417.419 373.918 421.298 376.949C425.177 379.98 430.778 379.292 433.809 375.412Z" fill="white"/>
</svg>
