<svg width="200" height="200" viewBox="0 0 198 377" fill="none" xmlns="http://www.w3.org/2000/svg">
<path d="M197.481 117.406V332.672C197.481 344.329 192.553 355.508 183.781 363.751C175.008 371.994 163.111 376.625 150.705 376.625H58.7175C43.1458 376.617 28.2152 370.797 17.2098 360.445C6.20438 350.094 0.0255776 336.059 0.0324716 321.427V109.678C0.0195513 100.208 3.98927 91.1178 11.0769 84.3862C13.4253 82.15 16.072 80.2089 18.951 78.6113C24.8377 75.3564 31.5459 73.6446 38.3762 73.6544H150.913C163.262 73.6544 175.106 78.2637 183.839 86.4685C192.573 94.6734 197.48 105.802 197.481 117.406Z" fill="#535461"/>
<path d="M197.481 179.489V233.045C184.592 227.917 169.591 226.653 160.931 241.909C143.513 272.59 113.284 230.31 113.284 230.31C113.284 230.31 101.434 215.763 70.4701 232.587C49.0309 244.222 17.4437 239.107 0 234.846V169.02C15.1439 178.873 40.9294 192.895 52.8185 183.274C63.4212 174.691 82.9178 181.876 96.535 188.805C98.0639 189.574 99.762 189.999 101.495 190.047C103.229 190.095 104.951 189.764 106.525 189.081C108.099 188.398 109.483 187.38 110.568 186.109C111.653 184.837 112.409 183.347 112.777 181.754C114.726 173.257 119.533 165.583 131.163 171.23C146.32 178.574 178.693 179.563 197.481 179.489Z" fill="#9DDE85"/>
<path d="M94.2417 92.255C137.682 92.255 172.898 83.8343 172.898 73.4468C172.898 63.0593 137.682 54.6386 94.2417 54.6386C50.8012 54.6386 15.5857 63.0593 15.5857 73.4468C15.5857 83.8343 50.8012 92.255 94.2417 92.255Z" fill="#C8CBD8"/>
<path d="M112.861 69.4117C112.861 69.4117 157.689 63.6184 149.321 77.7627C140.953 91.907 112.861 80.6685 112.861 80.6685V69.4117Z" fill="#535461"/>
<path d="M10.005 72.1221C10.005 72.1221 13.8121 48.6012 92.9034 50.3043C92.9034 50.3043 167.616 45.7015 181.954 69.3934L173.145 79.3865C173.145 79.3865 177.621 54.2418 93.4491 59.5284C9.27737 64.8149 19.8736 78.1046 19.8736 78.1046L18.3468 80.6685L10.005 72.1221Z" fill="#DDE1EB"/>
<path d="M105.786 65.6512C99.0752 65.6512 93.6375 69.955 93.6375 75.266C93.6375 80.5769 99.0752 84.8868 105.786 84.8868C112.498 84.8868 117.942 80.5769 117.942 75.266C117.942 69.955 112.504 65.6512 105.786 65.6512ZM105.786 80.8639C101.888 80.8639 98.7114 78.361 98.7114 75.266C98.7114 72.1709 101.882 69.6681 105.786 69.6681C109.691 69.6681 112.861 72.177 112.861 75.266C112.861 78.3549 109.697 80.8639 105.786 80.8639Z" fill="#E8EAF1"/>
<path d="M102.376 66.5425C102.376 66.5425 59.5751 42.521 50.8954 59.3696C42.2158 76.2183 90.3826 79.8993 96.0478 78.5929C96.0478 78.5929 91.7015 69.839 102.376 66.5425ZM88.4466 73.868C84.9448 74.6738 55.1898 72.3968 60.5496 61.9824C65.9094 51.568 92.3836 66.4143 92.3836 66.4143C85.7894 68.4593 88.4466 73.8497 88.4466 73.8497V73.868Z" fill="#E8EAF1"/>
<path d="M11.1354 84.2946C11.1354 84.2946 40.2993 97.4073 96.8924 96.046C153.485 94.6846 181.35 84.2946 181.35 84.2946L181.954 69.4117C181.592 69.6585 181.262 69.9454 180.973 70.2663C177.634 73.6788 162.172 84.5877 96.9833 86.1382C19.2563 88.0184 10.005 71.3102 10.005 71.3102L11.1354 84.2946Z" fill="#E8EAF1"/>
<path d="M150.633 58.2159C149.626 62.8126 144.371 68.2701 144.371 68.2701C144.371 68.2701 142.558 61.4452 143.565 56.8484C144.572 52.2517 146.404 52.0991 148.353 52.4776C150.302 52.856 151.64 53.6191 150.633 58.2159Z" fill="#9DDE85"/>
<path d="M138.056 32.4424C137.049 37.0391 131.786 42.4966 131.786 42.4966C131.786 42.4966 129.98 35.6656 130.987 31.0749C131.994 26.4843 133.82 26.3256 135.775 26.7041C137.731 27.0826 139.063 27.8456 138.056 32.4424Z" fill="#9DDE85"/>
<path d="M110.698 35.3848C113.082 39.5115 112.796 46.8675 112.796 46.8675C112.796 46.8675 106.735 42.7408 104.351 38.6202C101.966 34.4996 103.266 33.2726 105 32.3813C106.735 31.49 108.32 31.2642 110.698 35.3848Z" fill="#9DDE85"/>
<path opacity="0.6" d="M113.53 3.53717C115.915 7.66387 115.635 15.0199 115.635 15.0199C115.635 15.0199 109.567 10.8932 107.19 6.7726C104.812 2.65201 106.105 1.42499 107.839 0.533722C109.574 -0.357546 111.127 -0.583417 113.53 3.53717Z" fill="#9DDE85"/>
<path opacity="0.2" d="M109.21 2.21859C109.21 2.21859 111.705 2.04155 111.523 3.9767L109.21 2.21859Z" fill="white"/>
<path d="M98.3801 82.4205C103.181 81.1324 110.769 82.9821 110.769 82.9821C110.769 82.9821 105.169 87.6521 100.375 88.9402C95.58 90.2283 94.586 88.7815 94.0338 86.9806C93.4815 85.1798 93.5855 83.7208 98.3801 82.4205Z" fill="#9DDE85"/>
<path opacity="0.2" d="M96.0737 86.1077C96.0737 86.1077 96.431 83.7819 98.406 84.3618L96.0737 86.1077Z" fill="white"/>
<path opacity="0.8" d="M50.8175 12.0958C55.6186 10.8016 63.2003 12.6513 63.2003 12.6513C63.2003 12.6513 57.6066 17.3213 52.8055 18.6155C48.0044 19.9097 47.0169 18.4507 46.4647 16.6559C45.9125 14.8612 46.0164 13.3839 50.8175 12.0958Z" fill="#9DDE85"/>
<path opacity="0.2" d="M48.5111 15.7768C48.5111 15.7768 48.8684 13.451 50.8434 14.0309L48.5111 15.7768Z" fill="white"/>
<path opacity="0.5" d="M118.884 98.2741C122.782 95.3134 130.5 94.2085 130.5 94.2085C130.5 94.2085 127.31 100.569 123.471 103.536C119.631 106.503 118.078 105.526 116.818 104.073C115.558 102.621 115.025 101.235 118.884 98.2741Z" fill="#9DDE85"/>
<path opacity="0.2" d="M118.306 102.511C118.306 102.511 117.656 100.24 119.715 100.069L118.306 102.511Z" fill="white"/>
<path d="M73.5496 127.13C77.4477 124.17 85.1723 123.065 85.1723 123.065C85.1723 123.065 81.9759 129.426 78.1038 132.387C74.2318 135.347 72.7115 134.383 71.4577 132.93C70.2038 131.477 69.6776 130.116 73.5496 127.13Z" fill="#9DDE85"/>
<path opacity="0.2" d="M72.9714 131.367C72.9714 131.367 72.3217 129.096 74.3812 128.925L72.9714 131.367Z" fill="white"/>
<path opacity="0.5" d="M34.9265 122.369C37.5252 118.34 44.3727 114.818 44.3727 114.818C44.3727 114.818 43.6841 121.82 41.1244 125.849C38.5646 129.878 36.778 129.45 35.0694 128.486C33.3607 127.521 32.3667 126.392 34.9265 122.369Z" fill="#9DDE85"/>
</svg>
